# xmcd
#
# Track frame offsets:
#	150
#	13589
#	27178
#	43159
#	54405
#	72001
#	89090
#	109191
#	122398
#	142662
#	162270
#	174615
#	190458
#	203480
#	219441
#
# Disc length: 3156 seconds
#
# Revision: 1
# Processed by: cddbd v1.5.2PL0 Copyright (c) Steve Scherf et al.
# Submitted via: audiograbber 1.83.01
#
DISCID=c90c520f
DTITLE=CHARTBUSTER - CBP60102
DYEAR=1900
DGENRE=
TTITLE0=MARK CHESNUTT - YOUR LOVE IS A MIRACLE
TTITLE1=PATTY LOVELESS - BLUE MEMORIES
TTITLE2=PAUL OVERSTREET - BALL AND CHAIN
TTITLE3=CLINT BLACK - ONE MORE PAYMENT
TTITLE4=ALABAMA - THEN AGAIN
TTITLE5=TRISHA YEARWOOD - LIKE WE NEVER HAD A BROKEN HEART
TTITLE6=SAWYER BROWN - DID IT FOR LOVE
TTITLE7=LIZA JANE - VINCE GILL
TTITLE8=KATHY MATTEA - ASKING US TO DANCE
TTITLE9=DIAMOND RIO - MAMA DONT FORGET TO PRAY FOR ME
TTITLE10=DWIGHT YOAKAM - IT ONLY HURTS WHEN I CRY
TTITLE11=MARY CHAPIN CARPENTER - GOING OUT TONIGHT
TTITLE12=JOE DIFFIE - IF THE DEVIL DANCED IN EMPTY POCKETS
TTITLE13=HAL KETCHUM - I KNOW WHERE LOVE LIVES
TTITLE14=HIGHWAY 101 - BLAME, THE
EXTD=
EXTT0=
EXTT1=
EXTT2=
EXTT3=
EXTT4=
EXTT5=
EXTT6=
EXTT7=
EXTT8=
EXTT9=
EXTT10=
EXTT11=
EXTT12=
EXTT13=
EXTT14=
PLAYORDER=
